<svg width="264" height="68" fill="none" xmlns="http://www.w3.org/2000/svg"><path d="M20.003 25h-19v19h19V25zM67 25H48v19h19V25z" fill="#FF4612"/><path d="M44 25H25v19h19V25z" fill="#fff"/><path d="M19.999 1h-19v19h19V1zM43.998 1h-19v19h19V1zM66.998 1h-19v19h19V1zM19.998 48h-19v19h19V48zM43.998 48h-19v19h19V48zM66.988 48h-19v19h19V48z" fill="#FF4612"/><path d="M85.435 31.13h.066L90.861 21H92v11.798h-1.505v-9.556h-.066L85.203 33h-.297l-5.11-9.826h-.066v9.624h-.728V21h1.124l5.31 10.13zM100.951 27.843h.067L104.135 21h.867l-4.784 10.482a3.59 3.59 0 01-.483.785 2.416 2.416 0 01-.509.463c-.172.113-.35.185-.534.22-.182.034-.357.05-.524.05-.378 0-.72-.058-1.025-.176-.306-.12-.536-.245-.692-.38l.7-1.568c.145.191.328.372.55.54.223.17.467.253.734.253.355 0 .614-.084.775-.253.16-.168.297-.364.408-.59l.6-1.281L95.002 21h1.783l4.166 6.843zM109.016 21.945a2.382 2.382 0 00-.766.522c-.191.206-.329.43-.411.671-.084.244-.13.465-.141.663h-1.251c.011-.474.115-.888.313-1.242s.464-.647.799-.879a3.527 3.527 0 011.195-.513c.462-.11.972-.167 1.533-.167.725 0 1.34.086 1.845.257.505.172.92.393 1.244.662.324.272.558.582.7.929a2.754 2.754 0 01.042 2.03c-.116.322-.278.605-.487.854a2.43 2.43 0 01-.752.598 2.063 2.063 0 01-.949.223v.066h.115c.364 0 .721.07 1.073.208.353.137.667.336.944.596.277.259.502.57.677.929.175.359.263.76.263 1.202 0 .397-.081.799-.24 1.208-.16.41-.427.78-.803 1.11-.375.332-.874.603-1.497.813-.623.209-1.393.315-2.307.315-1.402 0-2.436-.262-3.103-.787-.667-.526-1.017-1.307-1.05-2.346h1.568c.011.188.047.418.107.689.06.27.184.532.372.786.187.255.457.474.809.654.352.183.825.276 1.42.276.605 0 1.106-.095 1.503-.283.397-.189.711-.422.941-.705.23-.283.394-.584.487-.911a3.27 3.27 0 00.14-.887c0-.387-.083-.735-.247-1.045a2.321 2.321 0 00-.685-.786 3.14 3.14 0 00-1.049-.49 5.18 5.18 0 00-1.355-.165h-1.155v-.73h1.155c.639 0 1.142-.09 1.511-.272.369-.183.647-.401.834-.656.187-.253.306-.512.355-.778.05-.265.074-.48.074-.646 0-.63-.217-1.153-.651-1.566-.433-.415-1.067-.622-1.902-.622-.494 0-.9.072-1.218.215zM127.002 21v.942h-6.39v4.303h5.486v.822h-5.486v4.99h6.39V33h-8V21h8zM137.478 20.805h1.524V33h-1.524V22.111L130.524 33h-1.522V20.805h1.522v10.766l6.954-10.766zm-4.368-.915a3.518 3.518 0 01-.948-.183 1.97 1.97 0 01-.799-.505c-.224-.232-.336-.562-.336-.995V18h1.591a1.735 1.735 0 00-.032.33c0 .244.05.436.15.576.1.139.221.244.36.313.14.07.285.11.436.122.149.011.276.018.376.018.101 0 .224-.007.369-.018.145-.012.287-.052.428-.122a.98.98 0 00.36-.313c.1-.14.151-.332.151-.575a1.09 1.09 0 00-.01-.166 1.465 1.465 0 00-.025-.165h1.626v.207c0 .433-.113.764-.337.995-.224.232-.49.4-.797.505a3.545 3.545 0 01-.958.183c-.33.018-.597.025-.798.025-.214 0-.482-.007-.807-.025zM87.477 38h1.525v12h-1.525V39.286L80.527 50h-1.525V38h1.524v10.595L87.477 38zM95.017 38.945a2.383 2.383 0 00-.766.522c-.192.205-.33.429-.412.671a2.527 2.527 0 00-.14.664h-1.25c.01-.477.115-.889.312-1.243.198-.354.465-.647.8-.878a3.512 3.512 0 011.194-.514c.461-.11.971-.167 1.532-.167.726 0 1.34.086 1.845.258.505.17.92.39 1.244.662.325.27.558.58.701.929a2.749 2.749 0 01.041 2.028c-.115.321-.278.606-.487.855-.21.248-.46.448-.752.598a2.073 2.073 0 01-.949.222v.068h.116c.363 0 .72.068 1.073.207.352.137.666.336.943.597.277.258.502.567.677.927.175.358.263.76.263 1.202 0 .397-.08.802-.24 1.209-.16.41-.428.779-.802 1.111-.375.331-.874.602-1.497.812-.624.209-1.393.315-2.308.315-1.4 0-2.435-.262-3.102-.789-.667-.524-1.018-1.305-1.051-2.345h1.57c.01.188.046.418.106.688.06.271.184.533.372.788.187.254.456.473.808.655.352.182.826.273 1.42.273.605 0 1.106-.094 1.503-.283.396-.187.71-.422.941-.703.231-.282.394-.587.488-.91.093-.328.14-.623.14-.888 0-.387-.083-.735-.247-1.045a2.351 2.351 0 00-.685-.787 3.13 3.13 0 00-1.05-.489A5.192 5.192 0 0096.013 44h-1.156v-.73h1.156c.639 0 1.142-.09 1.51-.272.369-.182.647-.4.835-.654.187-.254.305-.514.355-.779.049-.266.074-.481.074-.647 0-.63-.218-1.153-.651-1.566-.434-.415-1.068-.62-1.902-.62-.494 0-.9.072-1.218.214zM103.367 41.995a5.782 5.782 0 011.146-1.948c.523-.59 1.185-1.078 1.989-1.465.804-.388 1.767-.582 2.889-.582 1.133 0 2.115.196 2.948.59.833.39 1.521.886 2.065 1.482a5.922 5.922 0 011.206 1.947c.261.702.392 1.362.392 1.98 0 .409-.06.84-.179 1.294a6.542 6.542 0 01-.527 1.35 6.017 6.017 0 01-2.176 2.344 6.657 6.657 0 01-1.665.74 7.308 7.308 0 01-2.064.273c-1.122 0-2.085-.197-2.889-.588-.804-.394-1.466-.888-1.989-1.483a5.913 5.913 0 01-1.146-1.95c-.244-.699-.365-1.36-.365-1.98-.001-.627.121-1.297.365-2.005zm1.665 4.136c.244.646.578 1.2 1.003 1.664.425.465.925.827 1.504 1.085.577.26 1.206.39 1.886.39.668 0 1.299-.13 1.895-.39a4.8 4.8 0 001.562-1.085 5.153 5.153 0 001.063-1.664c.26-.648.391-1.357.391-2.131 0-.773-.131-1.483-.391-2.13a5.136 5.136 0 00-1.063-1.665 4.863 4.863 0 00-1.562-1.087 4.704 4.704 0 00-1.895-.387c-.68 0-1.309.129-1.886.387a4.563 4.563 0 00-1.504 1.087 5.111 5.111 0 00-1.003 1.666 6.005 6.005 0 00-.365 2.129c0 .774.121 1.483.365 2.13zM120.484 43.245h2.266c.846 0 1.544.1 2.093.301.548.2.982.46 1.302.782.32.319.543.678.669 1.078.125.4.188.801.188 1.2 0 .4-.063.8-.188 1.2-.125.4-.345.763-.66 1.089-.315.326-.747.592-1.295.797-.548.206-1.251.308-2.109.308h-3.748V38h6.957v.944h-5.475v4.301zm2.241 6.035c.335 0 .663-.056.982-.17a2.61 2.61 0 00.846-.49c.242-.212.44-.476.591-.797.152-.319.229-.685.229-1.097 0-.388-.065-.75-.196-1.088a2.538 2.538 0 00-.544-.866 2.443 2.443 0 00-.861-.565 3.01 3.01 0 00-1.144-.207h-2.144v5.28h2.241zM131.574 50h-1.572V38h4.043c.668 0 1.249.098 1.745.292.496.195.909.454 1.236.78.329.326.573.71.735 1.149.162.44.241.899.241 1.38 0 .501-.092.973-.276 1.414-.185.44-.459.829-.82 1.166a3.944 3.944 0 01-1.359.798c-.54.193-1.163.291-1.865.291a7.56 7.56 0 01-1.14-.078 9.132 9.132 0 01-.968-.196V50zm0-5.708c.242.092.513.15.812.18.3.028.627.042.984.042.519 0 .962-.085 1.331-.257.37-.17.674-.395.917-.668a2.58 2.58 0 00.527-.919c.109-.336.164-.67.164-1 0-.345-.06-.69-.182-1.04a2.85 2.85 0 00-.546-.94 2.688 2.688 0 00-.914-.678c-.37-.172-.795-.258-1.279-.258h-1.814v5.538zM141.195 46.47l-1.44 3.53h-.753l4.845-12h.819l5.336 12h-1.588l-1.571-3.53h-5.648zm2.734-6.55h-.065l-2.357 5.777h4.992l-2.57-5.776zM155.018 38.945a2.398 2.398 0 00-.767.522 1.87 1.87 0 00-.412.671 2.495 2.495 0 00-.139.664h-1.252c.011-.477.115-.889.313-1.243.198-.354.465-.647.799-.878a3.512 3.512 0 011.195-.514c.461-.11.972-.167 1.533-.167.725 0 1.34.086 1.845.258.505.17.92.39 1.244.662.323.27.558.58.701.929a2.77 2.77 0 01.04 2.028c-.115.321-.278.606-.487.855-.209.248-.46.448-.751.598a2.079 2.079 0 01-.95.222v.068h.116c.364 0 .721.068 1.074.207.351.137.666.336.942.597.278.258.504.567.678.927.174.358.262.76.262 1.202 0 .397-.081.802-.24 1.209-.16.41-.428.779-.803 1.111-.374.331-.873.602-1.497.812-.623.209-1.393.315-2.308.315-1.401 0-2.435-.262-3.101-.789-.668-.524-1.018-1.305-1.051-2.345h1.569c.009.188.046.418.107.688.061.271.183.533.371.788.187.254.457.473.809.655.351.182.825.273 1.42.273.606 0 1.106-.094 1.504-.283a2.68 2.68 0 00.94-.703c.23-.282.393-.587.487-.91a3.28 3.28 0 00.14-.888c0-.387-.082-.735-.246-1.045a2.368 2.368 0 00-.686-.787 3.125 3.125 0 00-1.05-.489 5.193 5.193 0 00-1.353-.166h-1.156v-.73h1.156c.638 0 1.142-.09 1.51-.272.369-.182.647-.4.834-.654.188-.254.306-.514.355-.779.049-.266.075-.481.075-.647 0-.63-.217-1.153-.651-1.566-.434-.415-1.068-.62-1.902-.62-.493 0-.9.072-1.217.214zM172.476 38h1.526v12h-1.526V39.286L165.524 50h-1.522V38h1.522v10.595L172.476 38zM181.703 50V38.944h-4.701V38h11v.944h-4.704V50h-1.595zM197.002 38v.944h-6.39v4.301h5.488v.823h-5.488v4.99h6.39V50h-8V38h8zM210.002 49.797h-1.629l-4.158-9.908h-.066l-3.205 8.341c-.219.574-.467 1.011-.748 1.314-.279.304-.594.456-.944.456-.22 0-.436-.018-.649-.05a3.199 3.199 0 01-.601-.153l.445-1.145c.109.056.228.123.36.202a.808.808 0 00.412.117c.361 0 .627-.151.798-.455.169-.304.348-.708.532-1.214L204.1 38h.904l4.998 11.797zM213.002 38h1.489v5.245h2.502c.721 0 1.334.094 1.841.285.507.187.922.43 1.243.727.323.298.556.64.703 1.029.148.388.222.778.222 1.165 0 .411-.069.825-.205 1.242a3.087 3.087 0 01-.679 1.142c-.316.343-.736.621-1.259.84-.525.217-1.179.325-1.964.325h-3.893V38zm3.811 11.245a2.433 2.433 0 001.84-.772 2.661 2.661 0 00.713-1.833c0-.377-.07-.73-.204-1.055a2.474 2.474 0 00-.574-.84 2.618 2.618 0 00-.884-.548 3.079 3.079 0 00-1.12-.198h-2.093v5.246h2.322zM225.517 50h-1.515V38h1.515v5.245h6.971V38h1.514v12h-1.514v-5.965h-6.971V50zM238.002 38h1.472v5.245h2.475c.712 0 1.318.094 1.82.285.502.187.912.43 1.228.727.32.298.551.64.697 1.029.147.388.219.778.219 1.165 0 .411-.068.825-.203 1.242a3.093 3.093 0 01-.671 1.142c-.313.343-.728.621-1.245.84-.519.217-1.166.325-1.942.325h-3.85V38zm3.768 11.245c.378 0 .721-.068 1.028-.205.308-.139.572-.325.794-.566a2.683 2.683 0 00.702-1.834c0-.377-.067-.73-.201-1.055a2.457 2.457 0 00-.567-.84 2.583 2.583 0 00-.874-.548 3.018 3.018 0 00-1.108-.198h-2.071v5.246h2.297zM249.002 38v12h-1.471V38h1.471zM257.443 42.714h.083L261.049 38h.883l-3.988 5.365L263.002 50h-1.887l-4.072-5.365h-.067L252.986 50h-.901l4.474-5.983L252.002 38h1.87l3.571 4.714zM87.477 56H89v12h-1.524V57.285L80.527 68H79V56h1.525v10.595L87.476 56zM104.001 66.11c-.15.166-.371.359-.662.58-.291.221-.652.428-1.089.623a8.314 8.314 0 01-1.532.486c-.586.134-1.251.201-1.994.201-1.172 0-2.183-.175-3.03-.522-.849-.348-1.544-.807-2.09-1.377a5.39 5.39 0 01-1.21-1.956A6.684 6.684 0 0192 61.884c0-.897.164-1.705.489-2.428a5.298 5.298 0 011.376-1.857c.591-.514 1.302-.91 2.133-1.186.83-.276 1.75-.413 2.76-.413.697 0 1.318.066 1.864.197a5.498 5.498 0 011.428.547c.406.233.746.51 1.019.83.273.32.496.668.67 1.044h-1.288a2.107 2.107 0 00-.426-.69 3.039 3.039 0 00-.784-.602 4.792 4.792 0 00-1.098-.431 5.26 5.26 0 00-1.367-.167 5.3 5.3 0 00-2.029.381 4.723 4.723 0 00-2.664 2.677 5.517 5.517 0 00-.374 2.063c0 .708.119 1.387.357 2.038a4.992 4.992 0 001.053 1.725c.465.498 1.045.895 1.742 1.194.696.297 1.498.447 2.403.447 1.626 0 3.03-.531 4.215-1.591l.521.448zM106.001 56h1.586v6.755L114.121 56h.87l-4.425 4.647L116.001 68h-1.81l-4.635-6.291-1.969 2.075V68h-1.586V56zM122.951 62.843h.067L126.134 56h.867l-4.783 10.482a3.627 3.627 0 01-.483.785c-.168.196-.337.35-.509.464-.172.11-.35.183-.533.218-.184.035-.358.051-.525.051-.378 0-.719-.06-1.025-.178-.305-.119-.536-.244-.692-.379l.7-1.568c.145.192.327.373.551.54.222.17.466.254.732.254.356 0 .614-.085.776-.253.161-.168.297-.366.408-.59l.6-1.281L117.001 56h1.784l4.166 6.843zM140.001 66.11c-.15.166-.371.359-.662.58-.289.221-.653.428-1.088.623a8.376 8.376 0 01-1.533.486 9.01 9.01 0 01-1.994.201c-1.173 0-2.183-.175-3.031-.522-.847-.348-1.543-.807-2.088-1.377a5.395 5.395 0 01-1.212-1.956 6.711 6.711 0 01-.392-2.261c0-.897.163-1.705.489-2.428a5.277 5.277 0 011.376-1.857c.591-.514 1.301-.91 2.132-1.186.831-.276 1.751-.413 2.761-.413.697 0 1.316.066 1.864.197a5.512 5.512 0 011.428.547c.405.233.745.51 1.019.83.273.32.496.668.671 1.044h-1.29a2.12 2.12 0 00-.425-.69 3.045 3.045 0 00-.785-.602 4.748 4.748 0 00-1.097-.431 5.28 5.28 0 00-1.367-.167c-.732 0-1.408.127-2.029.381a4.847 4.847 0 00-1.611 1.062c-.453.453-.803.99-1.052 1.615a5.49 5.49 0 00-.376 2.063c0 .708.119 1.387.357 2.038a5.009 5.009 0 001.052 1.725c.466.498 1.046.895 1.743 1.194.697.297 1.498.447 2.404.447 1.625 0 3.03-.531 4.215-1.591l.521.448zM153.001 66.11c-.15.166-.371.359-.662.58-.289.221-.652.428-1.088.623a8.339 8.339 0 01-1.532.486 9 9 0 01-1.993.201c-1.175 0-2.184-.175-3.032-.522-.846-.348-1.544-.807-2.09-1.377a5.376 5.376 0 01-1.21-1.956 6.687 6.687 0 01-.393-2.261c0-.897.164-1.705.489-2.428a5.323 5.323 0 011.375-1.857c.594-.514 1.304-.91 2.135-1.186.829-.276 1.748-.413 2.759-.413.698 0 1.318.066 1.864.197a5.49 5.49 0 011.427.547 3.8 3.8 0 011.019.83c.274.32.498.668.671 1.044h-1.288a2.107 2.107 0 00-.426-.69 3.045 3.045 0 00-.785-.602 4.775 4.775 0 00-1.096-.431 5.274 5.274 0 00-1.367-.167c-.732 0-1.408.127-2.03.381a4.843 4.843 0 00-1.61 1.062c-.452.453-.804.99-1.053 1.615a5.51 5.51 0 00-.376 2.063c0 .708.12 1.387.358 2.038a4.994 4.994 0 001.052 1.725c.466.498 1.046.895 1.742 1.194.698.297 1.498.447 2.404.447 1.626 0 3.031-.531 4.215-1.591l.521.448zM158.705 68V56.943h-4.704V56h11v.943h-4.7V68h-1.596zM167.001 56h4.067c.564 0 1.053.09 1.472.266a3.12 3.12 0 011.024.677 2.744 2.744 0 01.789 1.886c0 .365-.076.712-.228 1.036a2.853 2.853 0 01-.609.857 3.168 3.168 0 01-.883.602 2.552 2.552 0 01-1.072.231v.069c.238.01.552.05.942.119.388.07.768.206 1.134.412.37.205.688.502.957.892.273.388.407.907.407 1.559 0 .414-.068.822-.204 1.225a2.899 2.899 0 01-.66 1.09c-.303.32-.706.58-1.204.781-.501.2-1.114.298-1.843.298h-4.089V56zm3.425 5.246a2.468 2.468 0 001.68-.651 2.22 2.22 0 00.519-.737 2.32 2.32 0 00.186-.926c0-.262-.044-.526-.131-.79a1.943 1.943 0 00-.412-.703 2.105 2.105 0 00-.732-.496c-.296-.127-.655-.189-1.077-.189h-1.981v4.492h1.948zm.412 6.001c.348 0 .677-.055.986-.163.31-.108.578-.27.806-.488.228-.218.409-.48.545-.789.136-.309.205-.664.205-1.064a2.93 2.93 0 00-.188-1.044 2.366 2.366 0 00-.571-.873 2.704 2.704 0 00-.968-.602c-.39-.15-.852-.224-1.384-.224h-1.79v5.247h2.359zM84 2v7h-.863V6.23c-.646.286-1.242.43-1.79.43-.744 0-1.321-.207-1.731-.62-.41-.414-.615-1.003-.615-1.77V2h.855v2.16c0 .52.138.92.415 1.201.275.28.667.418 1.173.418.564 0 1.129-.146 1.693-.439V2h.864zM91 8.13V9h-5V2h4.862v.87h-3.878v2.15h3.455v.85h-3.455v2.26H91zM98 2v6.922h-.88V2.86h-2.785l-.063 2.027c-.03.957-.1 1.73-.21 2.323-.112.594-.287 1.042-.526 1.34-.24.3-.563.45-.97.45-.186 0-.374-.026-.566-.079l.063-.88c.095.027.191.04.288.04.257 0 .463-.113.62-.342.154-.227.272-.569.35-1.023.077-.455.128-1.056.153-1.8L93.57 2H98zM105 2v7h-.869V6.96h-1.711c-.106 0-.186-.004-.238-.01L100.94 9H100l1.374-2.22a1.95 1.95 0 01-1.019-.835c-.237-.39-.355-.866-.355-1.425 0-.794.226-1.411.678-1.855.452-.443 1.062-.665 1.83-.665H105zm-3.701 3.705c.269.276.666.415 1.193.415h1.639V2.87h-1.587c-.531 0-.939.14-1.223.42-.284.28-.426.687-.426 1.22 0 .52.135.918.404 1.195zM107 2h4.615v.85h-3.75v2h1.905c.729 0 1.282.173 1.662.52.379.347.568.846.568 1.5 0 .686-.206 1.213-.617 1.58-.411.366-.997.55-1.761.55H107V2zm2.586 6.21c.502 0 .884-.11 1.146-.33.262-.22.393-.543.393-.97 0-.847-.512-1.27-1.539-1.27h-1.721v2.57h1.721zM114 2h.982v5.4l4.106-5.4H120v7h-.973V3.61L114.912 9H114V2zM127 2v7h-.997V5.879h-4.006V9H121V2h.997v3.01h4.006V2H127zM130.701 8.546a3.267 3.267 0 01-1.249-1.25A3.576 3.576 0 01129 5.5c0-.665.151-1.263.452-1.795a3.27 3.27 0 011.253-1.25A3.562 3.562 0 01132.494 2c.515 0 .986.09 1.412.268.428.18.793.445 1.094.798l-.612.616a2.414 2.414 0 00-1.857-.812 2.61 2.61 0 00-1.327.342 2.45 2.45 0 00-.928.944c-.223.4-.334.85-.334 1.344 0 .496.111.944.334 1.344.223.401.533.716.928.944a2.61 2.61 0 001.327.342 2.42 2.42 0 001.857-.821l.612.616a2.934 2.934 0 01-1.098.802c-.43.182-.903.273-1.418.273a3.492 3.492 0 01-1.783-.454zM138.086 5.92h-1.249V9H136V2h.837v3.04h1.265L139.984 2h.913l-2.137 3.39L141 9h-.974l-1.94-3.08zM142 2h.981v5.4l4.107-5.4H148v7h-.972V3.61L142.912 9H142V2zM150 1.89h.982v5.484l4.105-5.484H156V9h-.972V3.525L150.912 9H150V1.89zm1.731-.858c-.295-.24-.446-.585-.452-1.032h.703c.007.264.099.469.273.615.176.146.418.218.729.218.297 0 .538-.072.72-.218.182-.146.276-.35.282-.615h.693c-.006.44-.156.782-.45 1.026-.294.244-.709.366-1.245.366-.541 0-.959-.12-1.253-.36zM163.991 2.87h-3.137l.009 6.13H160V2h4l-.009.87zM165.713 8.545a3.295 3.295 0 01-1.257-1.256A3.541 3.541 0 01164 5.5c0-.658.151-1.255.456-1.79a3.299 3.299 0 011.257-1.255A3.573 3.573 0 01167.509 2a3.56 3.56 0 011.788.455c.533.303.95.72 1.251 1.251.301.532.452 1.13.452 1.794 0 .665-.151 1.263-.452 1.794a3.271 3.271 0 01-1.251 1.25 3.547 3.547 0 01-1.788.456c-.664 0-1.263-.15-1.796-.455zm3.099-.757c.386-.229.689-.543.913-.944.222-.4.334-.848.334-1.344 0-.494-.112-.944-.334-1.343a2.477 2.477 0 00-.913-.944 2.512 2.512 0 00-1.303-.342c-.483 0-.921.114-1.312.342-.393.228-.7.543-.922.944-.224.4-.334.849-.334 1.343 0 .496.11.944.334 1.344.222.401.529.716.922.944a2.56 2.56 0 001.312.342c.483 0 .917-.114 1.303-.342zM173.701 8.546a3.27 3.27 0 01-1.247-1.25A3.578 3.578 0 01172 5.5c0-.665.153-1.263.454-1.795a3.254 3.254 0 011.252-1.25A3.56 3.56 0 01175.495 2c.514 0 .986.09 1.413.268.428.18.79.445 1.092.798l-.612.616c-.495-.542-1.115-.812-1.856-.812-.489 0-.932.114-1.327.342a2.45 2.45 0 00-.928.944c-.223.4-.334.85-.334 1.344 0 .496.111.944.334 1.344.224.401.533.716.928.944.395.228.838.342 1.327.342.736 0 1.353-.274 1.856-.821l.612.616a2.934 2.934 0 01-1.098.802 3.592 3.592 0 01-1.417.273 3.501 3.501 0 01-1.784-.454zM185 2l-2.802 5.657c-.222.45-.484.787-.784 1.01a1.61 1.61 0 01-.982.333c-.276 0-.558-.068-.847-.207l.234-.784c.223.086.421.128.595.128.397 0 .725-.23.982-.685l.145-.247L179 2h.964l2.047 4.353L184.11 2h.89zM192 7.749V10h-.853V8.565h-5.286L185.853 10H185l.008-2.251h.313c.403-.025.689-.352.853-.98.164-.628.266-1.515.303-2.66L186.541 2h4.514v5.749H192zm-4.933-1.257c-.111.606-.294 1.027-.544 1.257h3.624V2.816h-2.817l-.046 1.38c-.03.924-.103 1.69-.217 2.296zM197.265 7.249h-3.549L192.982 9H192l3.023-7h.944L199 9h-1.002l-.733-1.751zm-.334-.8l-1.441-3.43-1.44 3.43h2.881zM204.31 2.649c.46.433.69 1.03.69 1.791 0 .76-.23 1.356-.69 1.79-.461.434-1.092.65-1.894.65h-1.531V9H200V2h2.417c.801 0 1.433.216 1.893.649zm-.637 2.956c.295-.27.443-.659.443-1.165 0-.508-.148-.896-.443-1.165-.296-.27-.723-.405-1.283-.405h-1.505v3.14h1.505c.56 0 .987-.134 1.283-.405zM208.7 8.546a3.255 3.255 0 01-1.247-1.25A3.566 3.566 0 01207 5.5c0-.665.151-1.263.453-1.795a3.26 3.26 0 011.252-1.25 3.566 3.566 0 011.79-.456c.515 0 .986.09 1.413.268.428.18.791.445 1.092.798l-.611.616a2.414 2.414 0 00-1.856-.812c-.491 0-.934.114-1.328.342a2.437 2.437 0 00-.928.944c-.224.4-.335.85-.335 1.344 0 .496.111.944.335 1.344.222.401.532.716.928.944.394.228.838.342 1.328.342a2.42 2.42 0 001.856-.821l.611.616a2.951 2.951 0 01-1.096.802 3.613 3.613 0 01-1.419.273 3.502 3.502 0 01-1.785-.454zM218 2.87h-2.08V9h-.849V2.87H213V2h5v.87zM223.685 5.975c.209.29.315.662.315 1.115 0 .608-.191 1.077-.574 1.41-.382.333-.939.5-1.667.5H219V2h2.594c.661 0 1.177.154 1.547.465.372.31.557.755.557 1.335 0 .38-.083.704-.246.97a1.507 1.507 0 01-.694.6c.408.113.717.315.927.605zm-3.832-.896h1.681c.42 0 .74-.096.962-.29.22-.193.331-.476.331-.85 0-.373-.113-.657-.336-.855-.224-.196-.543-.295-.957-.295h-1.681v2.29zm3.275 1.93c0-.4-.115-.694-.349-.884-.233-.19-.577-.285-1.038-.285h-1.888v2.37h1.888c.926 0 1.387-.4 1.387-1.2zM231 8.13V9h-5V2h4.863v.87h-3.879v2.15h3.455v.85h-3.455v2.26H231zM239 2v7h-.997V5.879h-4.006V9H233V2h.997v3.01h4.006V2H239zM246 2v7h-.998V5.879h-4.006V9H240V2h.996v3.01h4.006V2H246zM252.503 5c.4.374.602.924.602 1.65 0 .766-.217 1.35-.648 1.75-.428.4-1.046.6-1.847.6H248V2h.894v2.44h1.878c.754 0 1.331.186 1.731.56zm-.723 2.814c.281-.263.421-.644.421-1.144 0-.96-.543-1.44-1.627-1.44h-1.68v2.98h1.68c.524 0 .927-.132 1.206-.396zM254.106 2H255v7h-.894V2zM257 1.89h.981v5.484l4.107-5.484H263V9h-.972V3.525L257.912 9H257V1.89zm1.73-.858c-.293-.24-.444-.585-.452-1.032h.706c.005.264.097.469.272.615.176.146.418.218.729.218.297 0 .537-.072.719-.218.182-.146.276-.35.282-.615h.694c-.006.44-.156.782-.45 1.026-.294.244-.71.366-1.245.366-.543 0-.961-.12-1.255-.36z" fill="#fff"/></svg>